<?xml version="1.0" encoding="UTF-8" standalone="no"?>
<svg width="248px" height="84px" viewBox="0 0 248 84" version="1.1" xmlns="http://www.w3.org/2000/svg" xmlns:xlink="http://www.w3.org/1999/xlink">
    <!-- Generator: Sketch 3.7.2 (28276) - http://www.bohemiancoding.com/sketch -->
    <title>Group</title>
    <desc>Created with Sketch.</desc>
    <defs></defs>
    <g id="B" stroke="none" stroke-width="1" fill="none" fill-rule="evenodd">
        <g id="B-1.0-Company-Name" transform="translate(-596.000000, -60.000000)" fill="#FFFFFF">
            <g id="Group" transform="translate(596.000000, 60.000000)">
                <polygon id="Fill-10062" points="13.3138173 31.7144394 13.3138173 52.4055 0.0364295918 52.4055 0.0364295918 0.972772727 13.3138173 0.972772727 13.3138173 20.1956515 28.5607867 0.972772727 44.5402663 0.972772727 24.4756337 25.9189848 45.7056235 52.4055 29.8029806 52.4055"></polygon>
                <polygon id="Fill-10063" points="65.2600602 0.972 73.5046418 18.3609394 81.7492235 0.972 96.7042133 0.972 80.1433357 33.622303 80.1433357 52.4047273 66.865948 52.4047273 66.865948 33.622303 50.3050704 0.972"></polygon>
                <polygon id="Fill-10064" points="117.498283 31.7144394 117.498283 52.4055 104.220895 52.4055 104.220895 0.972772727 117.498283 0.972772727 117.498283 20.1956515 132.745252 0.972772727 148.724732 0.972772727 128.660099 25.9189848 149.89265 52.4055 133.987446 52.4055"></polygon>
                <polygon id="Fill-10065" points="157.315591 52.4052424 157.315591 0.972515152 170.592979 0.972515152 170.592979 40.6649394 191.897244 40.6649394 191.897244 52.4052424"></polygon>
                <path d="M196.085614,26.7385909 C196.085614,19.4208636 198.554635,13.3034394 203.392788,8.3914697 C208.328267,3.47692424 214.449594,0.970712121 221.65688,0.970712121 C228.864165,0.970712121 234.985492,3.47692424 239.823645,8.3914697 C244.761686,13.3034394 247.228145,19.4208636 247.228145,26.7385909 C247.228145,34.0588939 244.761686,40.1737424 239.923533,45.0857121 C235.08538,49.9976818 228.964053,52.4060152 221.65688,52.4060152 C214.352267,52.4060152 208.230941,49.9976818 203.392788,45.0857121 C198.554635,40.1737424 196.085614,34.0588939 196.085614,26.7385909 M210.402859,26.7385909 C210.402859,30.3472273 211.488818,33.3557121 213.560849,35.6610152 C215.635441,37.9688939 218.399002,39.1717727 221.65688,39.1717727 C224.914757,39.1717727 227.68088,37.9688939 229.75291,35.6610152 C231.827502,33.3557121 232.913461,30.3472273 232.913461,26.7385909 C232.913461,23.1299545 231.827502,20.1214697 229.75291,17.8161667 C227.68088,15.5082879 224.914757,14.3054091 221.65688,14.3054091 C218.399002,14.3054091 215.635441,15.5082879 213.560849,17.8161667 C211.488818,20.1214697 210.402859,23.1299545 210.402859,26.7385909" id="Fill-10066"></path>
                <path d="M7.56412449,74.2842424 L7.56412449,72.0536364 L13.2961449,72.0536364 L13.2961449,77.1356061 C11.9591857,78.7892424 9.7616551,79.8633333 7.31824694,79.8633333 C5.28463469,79.8633333 3.57885918,79.1601515 2.16250204,77.7769697 C0.743583673,76.3706061 0.0443693878,74.5933333 0.0443693878,72.4245455 C0.0443693878,70.2145455 0.743583673,68.3960606 2.14201224,67.010303 C3.55836939,65.6271212 5.32561429,64.9239394 7.46167551,64.9239394 C9.86410408,64.9239394 11.733798,65.8331818 13.0912469,67.6516667 L11.4879204,69.305303 C10.501849,67.8783333 9.16745102,67.1777273 7.5026551,67.1777273 C6.08629796,67.1777273 4.89276735,67.6722727 3.94767551,68.6639394 C3.02307347,69.6556061 2.55180816,70.9177273 2.55180816,72.4245455 C2.55180816,73.9133333 3.02307347,75.1522727 3.96816531,76.1439394 C4.93374694,77.115 6.14776735,77.6121212 7.60510408,77.6121212 C8.87803265,77.6121212 9.96911429,77.2180303 10.8706653,76.4118182 L10.8706653,74.2842424 L7.56412449,74.2842424 Z" id="Fill-10068"></path>
                <path d="M16.3552714,65.3996818 C16.9315469,64.8201364 17.8740776,64.8201364 18.4503531,65.3996818 C19.0266286,65.9586212 19.0266286,66.9090758 18.4503531,67.4860455 C17.8740776,68.0655909 16.9315469,68.0655909 16.3552714,67.4860455 C15.7789959,66.9090758 15.7789959,65.9586212 16.3552714,65.3996818 L16.3552714,65.3996818 Z M16.2118429,79.6358939 L18.552802,79.6358939 L18.552802,69.5105909 L16.2118429,69.5105909 L16.2118429,79.6358939 Z" id="Fill-10070"></path>
                <polygon id="Fill-10073" points="29.9133694 69.5113636 26.3379 79.6366667 23.7920429 79.6366667 20.2165735 69.5113636 22.744502 69.5113636 25.0649714 76.5972727 27.3854408 69.5113636"></polygon>
                <path d="M39.9782133,75.2761667 L33.0962031,75.2761667 C33.198652,76.7829848 34.2461929,77.7360152 35.7470704,77.7360152 C36.8355908,77.7360152 37.6987235,77.2595 38.3339071,76.3090455 L39.9167439,77.7978333 C38.8487133,79.1810152 37.4502847,79.8635909 35.7470704,79.8635909 C34.2461929,79.8635909 33.0142439,79.3870758 32.0896418,78.4160152 C31.1650398,77.4449545 30.6937745,76.1854091 30.6937745,74.634803 C30.6937745,73.1279848 31.1240602,71.8452576 31.9667031,70.8123788 C32.8298357,69.7795 33.9798255,69.2643485 35.3961827,69.2643485 C38.6643051,69.2643485 39.9987031,71.8864697 39.9987031,74.4493485 L39.9782133,75.2761667 Z M33.2191418,73.3958636 L37.5143153,73.3958636 C37.4938255,72.3423788 36.8355908,71.4125303 35.4166724,71.4125303 C34.1847235,71.4125303 33.4445296,72.3011667 33.2191418,73.3958636 L33.2191418,73.3958636 Z" id="Fill-10074"></path>
                <polygon id="Fill-10076" points="51.7270622 83.6437727 49.2631643 83.6437727 50.82295 79.7595303 46.8376847 69.5105909 49.5090418 69.5105909 52.1368582 76.8257424 54.8082153 69.5105909 57.3566337 69.5105909"></polygon>
                <path d="M67.1335959,70.7925455 C68.1401571,71.8048182 68.6549633,73.0643636 68.6549633,74.5737576 C68.6549633,76.0805758 68.1401571,77.342697 67.1335959,78.3549697 C66.1270347,79.3672424 64.9155755,79.8617879 63.4556776,79.8617879 C61.9983408,79.8617879 60.7663918,79.3672424 59.7572694,78.3549697 C58.7507082,77.342697 58.2589531,76.0805758 58.2589531,74.5737576 C58.2589531,73.0643636 58.7507082,71.8048182 59.7572694,70.7925455 C60.7663918,69.7802727 61.9983408,69.2625455 63.4556776,69.2625455 C64.9155755,69.2625455 66.1270347,69.7802727 67.1335959,70.7925455 M65.4483102,76.8455758 C65.9836061,76.248 66.2499735,75.5036061 66.2499735,74.5737576 C66.2499735,73.6439091 65.9836061,72.8995152 65.4483102,72.3019394 C64.9360653,71.7017879 64.2573408,71.413303 63.4556776,71.413303 C61.8139327,71.413303 60.6408918,72.7346667 60.6408918,74.5737576 C60.6408918,76.4128485 61.8139327,77.7342121 63.4556776,77.7342121 C64.2573408,77.7342121 64.9360653,77.4457273 65.4483102,76.8455758" id="Fill-10077"></path>
                <path d="M73.2951337,69.5113636 L73.2951337,75.5643939 C73.2951337,76.9089394 73.9738582,77.7563636 75.1853173,77.7563636 C76.4992255,77.7563636 77.280399,76.7209091 77.280399,75.2140909 L77.280399,69.5113636 L79.6213582,69.5113636 L79.6213582,79.6366667 L77.3213786,79.6366667 L77.3213786,78.8098485 C76.6836337,79.5104545 75.8025724,79.8633333 74.714052,79.8633333 C72.432001,79.8633333 70.9541745,78.209697 70.9541745,75.3995455 L70.9541745,69.5113636 L73.2951337,69.5113636 Z" id="Fill-10079"></path>
                <path d="M88.9472888,71.6188485 C88.8448398,71.5982424 88.721901,71.5982424 88.5784724,71.5982424 C86.2759316,71.5982424 85.4768296,72.8371818 85.4768296,75.6679394 L85.4768296,79.6346061 L83.1333092,79.6346061 L83.1333092,69.5118788 L85.4332888,69.5118788 L85.4332888,70.6065758 C86.1120133,69.7797576 87.1390643,69.3676364 88.4965133,69.3676364 C88.6399418,69.3676364 88.7833704,69.3676364 88.9472888,69.3882424 L88.9472888,71.6188485 Z" id="Fill-10081"></path>
                <path d="M98.5605888,78.7263939 L98.5605888,79.6356364 L96.2606092,79.6356364 L96.2606092,65.1521515 L98.6015684,65.1521515 L98.6015684,70.2547273 C99.362252,69.5927576 100.307344,69.2630606 101.416354,69.2630606 C102.853201,69.2630606 104.023681,69.7601818 104.948283,70.7724545 C105.872885,71.7847273 106.326221,73.0442727 106.326221,74.5742727 C106.326221,76.101697 105.872885,77.3638182 104.948283,78.3760909 C104.023681,79.3677576 102.853201,79.862303 101.416354,79.862303 C100.245874,79.862303 99.2802929,79.4913939 98.5605888,78.7263939 M103.941721,74.5742727 C103.941721,72.7557879 102.95565,71.3494242 101.252436,71.3494242 C99.5261704,71.3494242 98.5605888,72.7557879 98.5605888,74.5742727 C98.5605888,76.3927576 99.5261704,77.7965455 101.252436,77.7965455 C102.95565,77.7965455 103.941721,76.3927576 103.941721,74.5742727" id="Fill-10083"></path>
                <path d="M111.069865,69.5113636 L111.069865,75.5643939 C111.069865,76.9089394 111.74859,77.7563636 112.960049,77.7563636 C114.273957,77.7563636 115.055131,76.7209091 115.055131,75.2140909 L115.055131,69.5113636 L117.39609,69.5113636 L117.39609,79.6366667 L115.09611,79.6366667 L115.09611,78.8098485 C114.460927,79.5104545 113.577304,79.8633333 112.486222,79.8633333 C110.206733,79.8633333 108.728906,78.209697 108.728906,75.3995455 L108.728906,69.5113636 L111.069865,69.5113636 Z" id="Fill-10085"></path>
                <path d="M123.209813,75.4827424 C121.176201,75.0062273 120.14915,73.9527424 120.14915,72.2810758 C120.14915,70.4419848 121.667956,69.2648636 123.827068,69.2648636 C125.284405,69.2648636 126.536844,69.8212273 127.625364,70.9571364 L126.127048,72.5695606 C125.509793,71.7221364 124.731181,71.2894091 123.765599,71.2894091 C122.922956,71.2894091 122.38766,71.7221364 122.38766,72.2398636 C122.38766,72.713803 122.715497,73.0228939 123.373732,73.1903182 L124.956568,73.5612273 C127.01067,74.0351667 128.037721,75.0912273 128.037721,76.7216818 C128.037721,78.5607727 126.600874,79.8641061 124.052456,79.8641061 C122.305701,79.8641061 120.909834,79.2021364 119.882783,77.9013788 L121.360609,76.3713788 C122.100803,77.3424394 123.066385,77.8369848 124.236864,77.8369848 C125.325385,77.8369848 125.778721,77.3836515 125.778721,76.8041061 C125.778721,76.3713788 125.468813,76.0622879 124.544211,75.8124394 L123.209813,75.4827424 Z" id="Fill-10087"></path>
                <path d="M130.522109,65.3996818 C131.095823,64.8201364 132.043477,64.8201364 132.617191,65.3996818 C133.193466,65.9586212 133.193466,66.9090758 132.617191,67.4860455 C132.043477,68.0655909 131.095823,68.0655909 130.522109,67.4860455 C129.945834,66.9090758 129.945834,65.9586212 130.522109,65.3996818 L130.522109,65.3996818 Z M130.378681,79.6358939 L132.71964,79.6358939 L132.71964,69.5105909 L130.378681,69.5105909 L130.378681,79.6358939 Z" id="Fill-10089"></path>
                <path d="M138.286461,79.6356364 L135.945502,79.6356364 L135.945502,69.5103333 L138.245482,69.5103333 L138.245482,70.3371515 C138.883227,69.6159394 139.746359,69.2630606 140.855369,69.2630606 C143.339757,69.2630606 144.840635,70.916697 144.840635,73.7474545 L144.840635,79.6356364 L142.497114,79.6356364 L142.497114,73.7474545 C142.497114,72.3204848 141.75692,71.3906364 140.504482,71.3906364 C139.088124,71.3906364 138.286461,72.4029091 138.286461,74.0359394 L138.286461,79.6356364 Z" id="Fill-10091"></path>
                <path d="M156.425053,75.2761667 L149.543043,75.2761667 C149.645492,76.7829848 150.693033,77.7360152 152.19391,77.7360152 C153.282431,77.7360152 154.145563,77.2595 154.780747,76.3090455 L156.363584,77.7978333 C155.295553,79.1810152 153.897124,79.8635909 152.19391,79.8635909 C150.693033,79.8635909 149.461084,79.3870758 148.536482,78.4160152 C147.61188,77.4449545 147.140614,76.1854091 147.140614,74.634803 C147.140614,73.1279848 147.5709,71.8452576 148.413543,70.8123788 C149.276676,69.7795 150.426665,69.2643485 151.843022,69.2643485 C155.111145,69.2643485 156.445543,71.8864697 156.445543,74.4493485 L156.425053,75.2761667 Z M149.665982,73.3958636 L153.958594,73.3958636 C153.938104,72.3423788 153.282431,71.4125303 151.863512,71.4125303 C150.631563,71.4125303 149.891369,72.3011667 149.665982,73.3958636 L149.665982,73.3958636 Z" id="Fill-10093"></path>
                <path d="M161.76495,75.4827424 C159.731338,75.0062273 158.704287,73.9527424 158.704287,72.2810758 C158.704287,70.4419848 160.223093,69.2648636 162.382205,69.2648636 C163.839542,69.2648636 165.091981,69.8212273 166.180501,70.9571364 L164.682185,72.5695606 C164.06493,71.7221364 163.286317,71.2894091 162.320736,71.2894091 C161.478093,71.2894091 160.942797,71.7221364 160.942797,72.2398636 C160.942797,72.713803 161.270634,73.0228939 161.928868,73.1903182 L163.511705,73.5612273 C165.565807,74.0351667 166.592858,75.0912273 166.592858,76.7216818 C166.592858,78.5607727 165.156011,79.8641061 162.607593,79.8641061 C160.860838,79.8641061 159.46497,79.2021364 158.437919,77.9013788 L159.915746,76.3713788 C160.65594,77.3424394 161.621521,77.8369848 162.792001,77.8369848 C163.880521,77.8369848 164.333858,77.3836515 164.333858,76.8041061 C164.333858,76.3713788 164.02395,76.0622879 163.099348,75.8124394 L161.76495,75.4827424 Z" id="Fill-10095"></path>
                <path d="M171.460465,75.4827424 C169.426853,75.0062273 168.399802,73.9527424 168.399802,72.2810758 C168.399802,70.4419848 169.918608,69.2648636 172.07772,69.2648636 C173.535057,69.2648636 174.787496,69.8212273 175.876016,70.9571364 L174.3777,72.5695606 C173.760445,71.7221364 172.981833,71.2894091 172.016251,71.2894091 C171.173608,71.2894091 170.638312,71.7221364 170.638312,72.2398636 C170.638312,72.713803 170.966149,73.0228939 171.624384,73.1903182 L173.20722,73.5612273 C175.261322,74.0351667 176.288373,75.0912273 176.288373,76.7216818 C176.288373,78.5607727 174.851527,79.8641061 172.303108,79.8641061 C170.556353,79.8641061 169.160486,79.2021364 168.133435,77.9013788 L169.611261,76.3713788 C170.351455,77.3424394 171.317037,77.8369848 172.487516,77.8369848 C173.576037,77.8369848 174.029373,77.3836515 174.029373,76.8041061 C174.029373,76.3713788 173.719465,76.0622879 172.794863,75.8124394 L171.460465,75.4827424 Z" id="Fill-10097"></path>
                <path d="M184.463034,79.0362576 C183.825289,78.4773182 183.497452,77.7148939 183.497452,76.7850455 C183.497452,74.5724697 185.223717,73.3953485 187.687615,73.3953485 C188.34585,73.3953485 189.024574,73.5189848 189.721228,73.7482273 L189.721228,73.0656515 C189.721228,72.0533788 188.878585,71.3914091 187.749085,71.3914091 C186.701544,71.3914091 185.899881,71.8885303 185.367146,72.8595909 L183.784309,71.370803 C184.544993,69.9876212 186.12783,69.2638333 187.769574,69.2638333 C190.379462,69.2638333 192.064748,70.585197 192.064748,73.0862576 L192.064748,79.6364091 L189.762207,79.6364091 L189.762207,78.850803 C189.004085,79.5333788 188.038503,79.8630758 186.885952,79.8630758 C185.922932,79.8630758 185.121268,79.595197 184.463034,79.0362576 M187.359779,77.7973182 C188.32536,77.7973182 189.127023,77.5062576 189.721228,76.9292879 L189.721228,75.7727727 C189.004085,75.5023182 188.30487,75.3580758 187.626146,75.3580758 C186.537626,75.3580758 185.838411,75.8139848 185.838411,76.620197 C185.838411,77.300197 186.373707,77.7973182 187.359779,77.7973182" id="Fill-10099"></path>
                <polygon id="Fill-10102" points="208.353111 69.5113636 204.777642 79.6366667 202.231785 79.6366667 198.656315 69.5113636 201.184244 69.5113636 203.504713 76.5972727 205.825183 69.5113636"></polygon>
                <path d="M218.007135,70.7925455 C219.013696,71.8048182 219.528502,73.0643636 219.528502,74.5737576 C219.528502,76.0805758 219.013696,77.342697 218.007135,78.3549697 C217.000573,79.3672424 215.789114,79.8617879 214.329216,79.8617879 C212.87188,79.8617879 211.639931,79.3672424 210.633369,78.3549697 C209.624247,77.342697 209.132492,76.0805758 209.132492,74.5737576 C209.132492,73.0643636 209.624247,71.8048182 210.633369,70.7925455 C211.639931,69.7802727 212.87188,69.2625455 214.329216,69.2625455 C215.789114,69.2625455 217.000573,69.7802727 218.007135,70.7925455 M216.321849,76.8455758 C216.857145,76.248 217.123512,75.5036061 217.123512,74.5737576 C217.123512,73.6439091 216.857145,72.8995152 216.321849,72.3019394 C215.809604,71.7017879 215.13088,71.413303 214.329216,71.413303 C212.687471,71.413303 211.514431,72.7346667 211.514431,74.5737576 C211.514431,76.4128485 212.687471,77.7342121 214.329216,77.7342121 C215.13088,77.7342121 215.809604,77.4457273 216.321849,76.8455758" id="Fill-10103"></path>
                <path d="M222.217532,65.3996818 C222.793807,64.8201364 223.736338,64.8201364 224.312613,65.3996818 C224.888889,65.9586212 224.888889,66.9090758 224.312613,67.4860455 C223.736338,68.0655909 222.793807,68.0655909 222.217532,67.4860455 C221.641256,66.9090758 221.641256,65.9586212 222.217532,65.3996818 L222.217532,65.3996818 Z M222.074103,79.6358939 L224.415062,79.6358939 L224.415062,69.5105909 L222.074103,69.5105909 L222.074103,79.6358939 Z" id="Fill-10105"></path>
                <path d="M229.633045,74.5735 C229.633045,76.4125909 230.803524,77.7339545 232.386361,77.7339545 C233.556841,77.7339545 234.215076,77.2394091 234.975759,76.1653182 L236.576524,77.6721364 C235.569963,79.1403182 234.153606,79.8641061 232.304402,79.8641061 C230.905973,79.8641061 229.715004,79.3669848 228.728933,78.3547121 C227.742861,77.3424394 227.251106,76.0828939 227.251106,74.5735 C227.251106,73.0641061 227.742861,71.8045606 228.728933,70.7922879 C229.715004,69.7800152 230.905973,69.2648636 232.304402,69.2648636 C233.989688,69.2648636 235.344576,69.9448636 236.392116,71.2894091 L234.7683,72.8580455 C234.048596,71.8869848 233.249494,71.4130455 232.365871,71.4130455 C230.783035,71.4130455 229.633045,72.7344091 229.633045,74.5735" id="Fill-10107"></path>
                <path d="M247.216876,75.2761667 L240.334865,75.2761667 C240.437314,76.7829848 241.484855,77.7360152 242.985733,77.7360152 C244.074253,77.7360152 244.937386,77.2595 245.572569,76.3090455 L247.155406,77.7978333 C246.087376,79.1810152 244.688947,79.8635909 242.985733,79.8635909 C241.484855,79.8635909 240.252906,79.3870758 239.328304,78.4160152 C238.403702,77.4449545 237.929876,76.1854091 237.929876,74.634803 C237.929876,73.1279848 238.362722,71.8452576 239.205365,70.8123788 C240.068498,69.7795 241.218488,69.2643485 242.634845,69.2643485 C245.902967,69.2643485 247.237365,71.8864697 247.237365,74.4493485 L247.216876,75.2761667 Z M240.457804,73.3958636 L244.750416,73.3958636 C244.729927,72.3423788 244.074253,71.4125303 242.655335,71.4125303 C241.423386,71.4125303 240.683192,72.3011667 240.457804,73.3958636 L240.457804,73.3958636 Z" id="Fill-10109"></path>
            </g>
        </g>
    </g>
</svg>