<?xml version="1.0" encoding="UTF-8" standalone="no"?>
<svg width="136px" height="33px" viewBox="0 0 136 33" version="1.1" xmlns="http://www.w3.org/2000/svg" xmlns:xlink="http://www.w3.org/1999/xlink">
    <!-- Generator: Sketch 3.7 (28169) - http://www.bohemiancoding.com/sketch -->
    <title>Logo Big</title>
    <desc>Created with Sketch.</desc>
    <defs></defs>
    <g id="Styles" stroke="none" stroke-width="1" fill="none" fill-rule="evenodd">
        <g id="Logo-Big" fill="#FFFFFF">
            <g id="Logo" transform="translate(8.000000, 4.000000)">
                <polygon id="Fill-8" points="6.46360774 14.8785811 6.46360774 24.8922977 0 24.8922977 0 7.02852596e-05 6.46360774 7.02852596e-05 6.46360774 9.30355435 13.8862124 7.02852596e-05 21.6638059 7.02852596e-05 11.8973965 12.0733207 22.2319637 24.8922977 14.4898691 24.8922977"></polygon>
                <polygon id="Fill-9" points="31.7503202 3.51426298e-05 35.7634509 8.41581638 39.7765816 3.51426298e-05 47.057015 3.51426298e-05 38.9952548 15.8017429 38.9952548 24.8922626 32.531647 24.8922626 32.531647 15.8017429 24.4698868 3.51426298e-05"></polygon>
                <polygon id="Fill-10" points="57.1789755 14.8785811 57.1789755 24.8922977 50.7153678 24.8922977 50.7153678 7.02852596e-05 57.1789755 7.02852596e-05 57.1789755 9.30355435 64.6015802 7.02852596e-05 72.3791736 7.02852596e-05 62.6127643 12.0733207 72.9473314 24.8922977 65.2052369 24.8922977"></polygon>
                <polygon id="Fill-11" points="76.5614688 24.8922802 76.5614688 5.27139444e-05 83.0250765 5.27139444e-05 83.0250765 19.2107712 93.3953183 19.2107712 93.3953183 24.8922802"></polygon>
                <path d="M95.4340611,12.4703621 C95.4340611,8.92816078 96.6355751,5.96827279 98.9904512,3.59069819 C101.393655,1.21294786 104.373276,0 107.881866,0 C111.39028,0 114.370077,1.21294786 116.725129,3.59069819 C119.128157,5.96827279 120.329671,8.92816078 120.329671,12.4703621 C120.329671,16.0125635 119.128157,18.9724515 116.773281,21.3500261 C114.418229,23.7276007 111.438432,24.8922274 107.881866,24.8922274 C104.3253,24.8922274 101.345503,23.7276007 98.9904512,21.3500261 C96.6355751,18.9724515 95.4340611,16.0125635 95.4340611,12.4703621 M102.402913,12.4703621 C102.402913,14.2171265 102.93153,15.6727343 103.940787,16.7888642 C104.950045,17.9049941 106.295839,18.4873075 107.881866,18.4873075 C109.467893,18.4873075 110.813511,17.9049941 111.822944,16.7888642 C112.832202,15.6727343 113.360819,14.2171265 113.360819,12.4703621 C113.360819,10.7235977 112.832202,9.26781429 111.822944,8.15186009 C110.813511,7.03590588 109.467893,6.45359251 107.881866,6.45359251 C106.295839,6.45359251 104.950045,7.03590588 103.940787,8.15186009 C102.93153,9.26781429 102.402913,10.7235977 102.402913,12.4703621" id="Fill-12"></path>
            </g>
        </g>
    </g>
</svg>