<?xml version="1.0" encoding="UTF-8" standalone="no"?>
<svg width="136px" height="50px" viewBox="0 0 136 50" version="1.1" xmlns="http://www.w3.org/2000/svg" xmlns:xlink="http://www.w3.org/1999/xlink">
    <!-- Generator: Sketch 3.7 (28169) - http://www.bohemiancoding.com/sketch -->
    <title>Logo Small</title>
    <desc>Created with Sketch.</desc>
    <defs></defs>
    <g id="Styles" stroke="none" stroke-width="1" fill="none" fill-rule="evenodd">
        <g id="Logo-Small">
            <g id="Group-4" transform="translate(27.000000, 7.000000)">
                <path d="M3.568,0.7 L3.568,7 L4.99,7 L4.99,5.2 L6.241,5.2 C7.843,5.2 8.761,4.354 8.761,2.887 C8.761,1.492 7.843,0.7 6.241,0.7 L3.568,0.7 Z M4.99,1.879 L6.169,1.879 C6.961,1.879 7.411,2.23 7.411,2.932 C7.411,3.652 6.961,4.012 6.169,4.012 L4.99,4.012 L4.99,1.879 Z M14.104,0.655 C12.178,0.655 10.72,2.014 10.72,3.85 C10.72,5.677 12.178,7.063 14.104,7.063 C16.03,7.063 17.488,5.668 17.488,3.85 C17.488,2.023 16.03,0.655 14.104,0.655 L14.104,0.655 Z M14.122,1.897 C15.175,1.897 16.03,2.743 16.03,3.85 C16.03,4.957 15.175,5.821 14.122,5.821 C13.069,5.821 12.178,4.957 12.178,3.85 C12.178,2.743 13.06,1.897 14.122,1.897 L14.122,1.897 Z M26.719,7 L28.807,0.7 L27.349,0.7 L26.035,5.452 L24.703,0.7 L23.308,0.7 L21.994,5.452 L20.671,0.7 L19.141,0.7 L21.22,7 L22.687,7 L23.983,2.509 L25.252,7 L26.719,7 Z M35.725,1.879 L35.725,0.7 L30.928,0.7 L30.928,7 L35.824,7 L35.824,5.821 L32.35,5.821 L32.35,4.426 L35.392,4.426 L35.392,3.247 L32.35,3.247 L32.35,1.879 L35.725,1.879 Z M42.31,7 L43.921,7 L42.58,4.921 C43.345,4.561 43.759,3.859 43.759,2.887 C43.759,1.492 42.823,0.7 41.176,0.7 L38.44,0.7 L38.44,7 L39.862,7 L39.862,5.2 L41.176,5.2 L41.311,5.2 L42.31,7 Z M39.862,4.012 L39.862,1.879 L41.176,1.879 C41.959,1.879 42.409,2.23 42.409,2.932 C42.409,3.652 41.959,4.012 41.176,4.012 L39.862,4.012 Z M51.253,1.879 L51.253,0.7 L46.456,0.7 L46.456,7 L51.352,7 L51.352,5.821 L47.878,5.821 L47.878,4.426 L50.92,4.426 L50.92,3.247 L47.878,3.247 L47.878,1.879 L51.253,1.879 Z M53.968,0.7 L53.968,7 L56.587,7 C58.576,7 59.953,5.704 59.953,3.85 C59.953,1.987 58.594,0.7 56.641,0.7 L53.968,0.7 Z M55.39,1.897 L56.614,1.897 C57.694,1.897 58.504,2.698 58.504,3.859 C58.504,5.011 57.73,5.803 56.677,5.803 L55.39,5.803 L55.39,1.897 Z M66.058,0.7 L66.058,7 L69.055,7 C70.522,7 71.431,6.334 71.431,5.254 C71.431,4.426 70.927,3.814 70.117,3.661 C70.792,3.49 71.206,2.959 71.206,2.275 C71.206,1.303 70.342,0.7 68.956,0.7 L66.058,0.7 Z M67.48,1.861 L68.884,1.861 C69.415,1.861 69.748,2.104 69.748,2.536 C69.748,2.977 69.415,3.238 68.884,3.238 L67.48,3.238 L67.48,1.861 Z M67.48,4.336 L68.884,4.336 C69.559,4.336 69.964,4.615 69.964,5.074 C69.964,5.56 69.559,5.839 68.884,5.839 L67.48,5.839 L67.48,4.336 Z M76.999,4.966 L79.294,0.7 L77.863,0.7 L76.288,3.526 L74.677,0.7 L73.246,0.7 L75.577,5.002 L75.577,7 L76.999,7 L76.999,4.966 Z" id="POWERED-BY" fill="#D18EE2"></path>
                <g id="Group-2" transform="translate(0.500000, 18.945419)" fill="#EEEEEE">
                    <polygon id="Fill-1" points="9.31159209 8.07945794e-05 4.33429615 6.31821688 4.33429615 8.07945794e-05 -3.19169958e-05 8.07945794e-05 -3.19169958e-05 16.9040842 4.33429615 16.9040842 4.33429615 10.1039277 9.71645919 16.9040842 14.9080778 16.9040842 7.97794042 8.19895309 14.5271484 8.07945794e-05"></polygon>
                    <polygon id="Fill-2" points="26.6730176 8.07945794e-05 23.9819361 5.71516614 21.2908546 8.07945794e-05 16.4088309 8.07945794e-05 21.8147721 10.730732 21.8147721 16.9040842 26.1491001 16.9040842 26.1491001 10.730732 31.5552009 8.07945794e-05"></polygon>
                    <polygon id="Fill-3" points="43.3199014 8.07945794e-05 38.3426055 6.31821688 38.3426055 8.07945794e-05 34.0081178 8.07945794e-05 34.0081178 16.9040842 38.3426055 16.9040842 38.3426055 10.1039277 43.7247685 16.9040842 48.9163871 16.9040842 41.9862498 8.19895309 48.5354578 8.07945794e-05"></polygon>
                    <polygon id="Fill-4" points="51.3398606 8.07945794e-05 51.3398606 16.9040842 62.6282637 16.9040842 62.6282637 13.0458199 55.6741886 13.0458199 55.6741886 8.07945794e-05"></polygon>
                    <path d="M74.9851043,11.4012624 C74.3083044,12.1591155 73.4060109,12.5545242 72.342377,12.5545242 C71.2789027,12.5545242 70.3764497,12.1591155 69.6996498,11.4012624 C69.0228499,10.6432476 68.6684116,9.65480677 68.6684116,8.46858076 C68.6684116,7.28235475 69.0228499,6.29375228 69.6996498,5.53606071 C70.3764497,4.77804597 71.2789027,4.3826373 72.342377,4.3826373 C73.4060109,4.3826373 74.3083044,4.77804597 74.9851043,5.53606071 C75.6619042,6.29375228 76.016502,7.28235475 76.016502,8.46858076 C76.016502,9.65480677 75.6619042,10.6432476 74.9851043,11.4012624 M78.2725549,2.43855814 C76.6933019,0.823959276 74.6951384,0.000177748074 72.342377,0.000177748074 C69.9897752,0.000177748074 67.9916117,0.823959276 66.3801226,2.43855814 C64.8010292,4.05315701 63.9952846,6.06316455 63.9952846,8.46858076 C63.9952846,10.873997 64.8010292,12.8840045 66.3801226,14.4986034 C67.9593755,16.1132022 69.9575391,16.9041812 72.342377,16.9041812 C74.7273746,16.9041812 76.7255381,16.1132022 78.3046315,14.4986034 C79.8838844,12.8840045 80.689629,10.873997 80.689629,8.46858076 C80.689629,6.06316455 79.8838844,4.05315701 78.2725549,2.43855814" id="Fill-5"></path>
                </g>
            </g>
        </g>
    </g>
</svg>